<svg width="183" height="61" fill="none" xmlns="http://www.w3.org/2000/svg">
  <path d="M13.342 23.966H5.92L3.977 28.17H1.169L9.745 9.744l8.272 18.426h-2.854l-1.821-4.204zm-1.078-2.46L9.7 15.603l-2.686 5.905h5.251zM26.941 10.836v14.875h5.1v2.46h-7.71V10.835h2.61zm14.8 0v14.875h5.1v2.46H39.13V10.835h2.61zM78.427 11.762v3.112c-1.518-1.275-3.081-1.897-4.69-1.897-1.791 0-3.294.637-4.508 1.912-1.23 1.275-1.837 2.823-1.837 4.675 0 1.822.607 3.355 1.837 4.6 1.23 1.259 2.732 1.881 4.508 1.881.925 0 1.715-.152 2.352-.455.365-.152.729-.35 1.108-.607.395-.258.805-.562 1.23-.91v3.156c-1.503.835-3.066 1.26-4.72 1.26-2.475 0-4.6-.865-6.345-2.596-1.746-1.745-2.611-3.84-2.611-6.314 0-2.2.729-4.174 2.186-5.904 1.79-2.11 4.113-3.172 6.982-3.172 1.548 0 3.05.425 4.508 1.26zM89.4 17.621h7.484v-6.784h2.626V28.17h-2.626v-8.09H89.4v8.09h-2.61V10.836h2.61v6.785zM117.967 23.966h-7.422l-1.928 4.204h-2.808l8.576-18.426 8.272 18.426h-2.869l-1.821-4.204zm-1.062-2.46l-2.566-5.904-2.701 5.905h5.267zM127.908 28.17l3.643-18.639 5.95 13.479 6.163-13.479 3.278 18.64h-2.687l-1.669-10.459-5.13 11.263-4.979-11.278-1.867 10.473h-2.702zM156.899 21.128v7.042h-2.61V10.836h2.959c1.457 0 2.55.107 3.294.304a4.224 4.224 0 011.973 1.154c1.002.971 1.488 2.2 1.488 3.673 0 1.594-.516 2.853-1.579 3.78-1.062.925-2.504 1.38-4.31 1.38h-1.215zm0-2.414h.987c2.398 0 3.597-.926 3.597-2.777 0-1.792-1.229-2.687-3.719-2.687h-.865v5.464zM180.639 13.417l-2.11 1.26c-.395-.683-.774-1.139-1.139-1.351-.364-.228-.85-.35-1.442-.35-.728 0-1.335.198-1.821.608-.471.41-.713.91-.713 1.533 0 .835.637 1.533 1.897 2.049l1.73.698c1.397.577 2.429 1.275 3.081 2.08.653.82.972 1.836.972 3.02 0 1.594-.531 2.914-1.594 3.946-1.078 1.063-2.398 1.579-3.992 1.579-1.502 0-2.732-.44-3.718-1.336-.972-.895-1.564-2.14-1.807-3.764l2.656-.577c.107 1.017.319 1.715.623 2.11.546.744 1.32 1.123 2.352 1.123.82 0 1.503-.273 2.034-.82.547-.546.82-1.244.82-2.079 0-.334-.046-.652-.152-.926a2.327 2.327 0 00-.44-.774c-.197-.243-.455-.455-.759-.668a9.478 9.478 0 00-1.123-.592l-1.685-.698c-2.368-.986-3.552-2.459-3.552-4.402 0-1.29.501-2.383 1.488-3.263 1.002-.88 2.246-1.32 3.719-1.32 2.003 0 3.566.971 4.675 2.914z" fill="currentColor"/>
  <path fill-rule="evenodd" clip-rule="evenodd" d="M57.29 27.113l2.626-.425 6.745 15.664 2.755-4.023 3.66 2.69 3.14-7.26 7.239 7.45H183v2.663H82.277l-5.168-5.32-2.877 6.653-4.15-3.05-3.972 5.802-6.48-15.047-1.124 16.24-2.63.413-3.362-8.041-1.32 2.53-6.337-4.17-3.93 4.745-9.512-3.363-3.805 1.782H0v-2.663h26.986l4.28-2.004 8.759 3.097 4.28-5.17 5.854 3.852 2.63-5.041 3.387 8.101 1.114-16.105z" fill="currentColor"/>
</svg>