<svg xmlns="http://www.w3.org/2000/svg" viewBox="0 0 458.52 91.38"><defs><style>.cls-1{fill:#1d1d1b;}</style></defs>
  <path class="cls-1" d="M46.44,382.08H191.7c3.21,0,3.22-5,0-5H46.44c-3.22,0-3.22,5,0,5Z" transform="translate(-44.03 -322.76)"/>
  <path class="cls-1" d="M427.51,382.25h72.62c3.22,0,3.23-5,0-5H427.51c-3.22,0-3.23,5,0,5Z" transform="translate(-44.03 -322.76)"/>
  <path class="cls-1" d="M193.64,381.51,214.4,357.2c2.08-2.44-1.44-6-3.53-3.54L190.1,378c-2.07,2.43,1.45,6,3.54,3.53Z" transform="translate(-44.03 -322.76)"/>
  <path class="cls-1" d="M383.12,384.58l32.76-15.69c2.9-1.39.36-5.7-2.53-4.32L380.6,380.26c-2.9,1.39-.37,5.71,2.52,4.32Z" transform="translate(-44.03 -322.76)"/>
  <path class="cls-1" d="M320.65,412.21l17.16-59.27c.9-3.09-3.93-4.42-4.82-1.33l-17.16,59.27c-.9,3.1,3.93,4.42,4.82,1.33Z" transform="translate(-44.03 -322.76)"/>
  <path class="cls-1" d="M275.67,395l37.76-67.12c1.58-2.8-2.74-5.33-4.32-2.52l-37.76,67.12c-1.58,2.8,2.74,5.33,4.32,2.52Z" transform="translate(-44.03 -322.76)"/>
  <path class="cls-1" d="M237.59,387.29,256,365.7c2.08-2.43-1.44-6-3.53-3.53l-18.44,21.59c-2.08,2.43,1.44,6,3.53,3.53Z" transform="translate(-44.03 -322.76)"/>
  <path class="cls-1" d="M343,384l20.73-19.21c2.36-2.19-1.18-5.72-3.54-3.53l-20.72,19.2c-2.37,2.2,1.18,5.72,3.53,3.54Z" transform="translate(-44.03 -322.76)"/>
  <path class="cls-1" d="M211.88,355l21.79,31.82c1.81,2.64,6.14.14,4.32-2.52l-21.8-31.82c-1.8-2.64-6.14-.14-4.31,2.52Z" transform="translate(-44.03 -322.76)"/>
  <path class="cls-1" d="M360.57,364.58l19,19.31c2.26,2.3,5.79-1.24,3.53-3.54l-19-19.3c-2.26-2.3-5.8,1.23-3.54,3.53Z" transform="translate(-44.03 -322.76)"/>
  <path class="cls-1" d="M413.41,369.05l11.37,11.56c2.26,2.3,5.79-1.23,3.53-3.53l-11.37-11.57c-2.26-2.3-5.79,1.24-3.53,3.54Z" transform="translate(-44.03 -322.76)"/>
  <path class="cls-1" d="M253.29,364.2l18.06,30.1c1.65,2.75,6,.24,4.32-2.53l-18.06-30.09c-1.66-2.76-6-.25-4.32,2.52Z" transform="translate(-44.03 -322.76)"/>
  <path class="cls-1" d="M333.22,353.3l5.29,29.63c.57,3.16,5.39,1.82,4.83-1.33L338,352c-.57-3.17-5.39-1.83-4.82,1.33Z" transform="translate(-44.03 -322.76)"/>
  <path class="cls-1" d="M310,325.16l5.32,86.57c.2,3.2,5.2,3.22,5,0L315,325.16c-.2-3.19-5.2-3.21-5,0Z" transform="translate(-44.03 -322.76)"/>
</svg>