<svg width="16" height="16" viewBox="0 0 16 16" fill="none" xmlns="http://www.w3.org/2000/svg">
<path fill-rule="evenodd" clip-rule="evenodd" d="M8.00002 0.000488281C10.1727 0.000488281 10.4451 0.00969753 11.2984 0.0486304C12.1499 0.0874681 12.7314 0.222717 13.2403 0.420494C13.7664 0.624907 14.2125 0.898454 14.6573 1.3432C15.102 1.78797 15.3756 2.23411 15.58 2.76018C15.7778 3.26904 15.913 3.85059 15.9519 4.7021C15.9908 5.55538 16 5.82782 16 8.0005C16 10.1732 15.9908 10.4456 15.9519 11.2989C15.913 12.1504 15.7778 12.7319 15.58 13.2408C15.3756 13.7669 15.102 14.213 14.6573 14.6578C14.2125 15.1025 13.7664 15.3761 13.2403 15.5805C12.7314 15.7783 12.1499 15.9135 11.2984 15.9523C10.4451 15.9913 10.1727 16.0005 8.00002 16.0005C5.82733 16.0005 5.55489 15.9913 4.70161 15.9523C3.8501 15.9135 3.26855 15.7783 2.7597 15.5805C2.23363 15.3761 1.78748 15.1025 1.34271 14.6578C0.897966 14.213 0.624419 13.7669 0.420005 13.2408C0.222229 12.7319 0.0869798 12.1504 0.0481422 11.2989C0.00920925 10.4456 0 10.1732 0 8.0005C0 5.82782 0.00920925 5.55538 0.0481422 4.7021C0.0869798 3.85059 0.222229 3.26904 0.420005 2.76018C0.624419 2.23411 0.897966 1.78797 1.34271 1.3432C1.78748 0.898454 2.23363 0.624907 2.7597 0.420494C3.26855 0.222717 3.8501 0.0874681 4.70161 0.0486304C5.55489 0.00969753 5.82733 0.000488281 8.00002 0.000488281ZM8.00002 1.44193C5.86391 1.44193 5.61088 1.45009 4.76731 1.48858C3.98732 1.52414 3.56373 1.65447 3.28183 1.76403C2.90841 1.90915 2.64191 2.08251 2.36198 2.36247C2.08202 2.6424 1.90867 2.9089 1.76354 3.28232C1.65398 3.56422 1.52366 3.98781 1.48809 4.7678C1.4496 5.61137 1.44144 5.8644 1.44144 8.0005C1.44144 10.1366 1.4496 10.3896 1.48809 11.2332C1.52366 12.0132 1.65398 12.4368 1.76354 12.7187C1.90867 13.0921 2.08205 13.3586 2.36198 13.6385C2.64191 13.9185 2.90841 14.0918 3.28183 14.2369C3.56373 14.3465 3.98732 14.4768 4.76731 14.5124C5.61079 14.5509 5.86375 14.559 8.00002 14.559C10.1362 14.559 10.3892 14.5509 11.2327 14.5124C12.0127 14.4768 12.4363 14.3465 12.7182 14.2369C13.0916 14.0918 13.3581 13.9185 13.638 13.6385C13.918 13.3586 14.0913 13.0921 14.2365 12.7187C14.346 12.4368 14.4763 12.0132 14.5119 11.2332C14.5504 10.3896 14.5586 10.1366 14.5586 8.0005C14.5586 5.8644 14.5504 5.61137 14.5119 4.7678C14.4763 3.98781 14.346 3.56422 14.2365 3.28232C14.0913 2.9089 13.918 2.6424 13.638 2.36247C13.3581 2.08251 13.0916 1.90915 12.7182 1.76403C12.4363 1.65447 12.0127 1.52414 11.2327 1.48858C10.3891 1.45009 10.1361 1.44193 8.00002 1.44193ZM8.00002 3.89238C10.2689 3.89238 12.1081 5.73163 12.1081 8.0005C12.1081 10.2693 10.2689 12.1086 8.00002 12.1086C5.73114 12.1086 3.89189 10.2693 3.89189 8.0005C3.89189 5.73163 5.73114 3.89238 8.00002 3.89238ZM8.00002 10.6672C9.47276 10.6672 10.6667 9.47325 10.6667 8.0005C10.6667 6.52772 9.47276 5.33382 8.00002 5.33382C6.52723 5.33382 5.33333 6.52772 5.33333 8.0005C5.33333 9.47325 6.52723 10.6672 8.00002 10.6672ZM13.2304 3.73008C13.2304 4.26028 12.8006 4.69006 12.2704 4.69006C11.7402 4.69006 11.3104 4.26028 11.3104 3.73008C11.3104 3.19988 11.7402 2.77006 12.2704 2.77006C12.8006 2.77006 13.2304 3.19988 13.2304 3.73008Z" fill="currentColor"/>
</svg>
